# xmcd
#
# Track frame offsets: 
#        150
#        16172
#        37909
#        54101
#        71914
#        85512
#        118274
#        138333
#        151544
#        171644
#        175048
#        190734
#        206144
#        230283
#        245819
#        264432
#        282761
#        304119
#
# Disc length: 4495 seconds
#
# Revision: 0
# Processed by: cddbd v1.5.2PL0 Copyright (c) Steve Scherf et al.
# Submitted via: ExactAudioCopy v0.99pb3
#
DISCID=ee118d12
DTITLE=Gillan - Magic (Remaster)
DYEAR=1982
DGENRE=Hard Rock
TTITLE0=What's The Matter
TTITLE1=Bluesy Blue Sea
TTITLE2=Caught In A Trap
TTITLE3=Long Gone
TTITLE4=Driving Me Wild
TTITLE5=Demon Driver
TTITLE6=Living A Lie
TTITLE7=You're So Right
TTITLE8=Living For The City
TTITLE9=Demon Driver [Reprise]
TTITLE10=Breaking Chains
TTITLE11=Purple Sky
TTITLE12=Fiji
TTITLE13=Helter Skelter
TTITLE14=Smokestack Lightning
TTITLE15=South Africa
TTITLE16=John
TTITLE17=South Africa [Extended 12''version]
EXTD=
EXTT0=
EXTT1=
EXTT2=
EXTT3=
EXTT4=
EXTT5=
EXTT6=
EXTT7=
EXTT8=
EXTT9=
EXTT10=
EXTT11=
EXTT12=
EXTT13=
EXTT14=
EXTT15=
EXTT16=
EXTT17=
PLAYORDER=
